<svg xmlns="http://www.w3.org/2000/svg" width="14.011" height="14.011" viewBox="0 0 14.011 14.011">
  <g id="组_3907" data-name="组 3907" transform="translate(-6132 -3975)">
    <g id="组_3904" data-name="组 3904" transform="translate(6132 3988.32)">
      <rect id="矩形_2006" data-name="矩形 2006" width="13.823" height="0.691" rx="0.346" transform="translate(0 0)" fill="#fff"/>
    </g>
    <path id="路径_7821" data-name="路径 7821" d="M6144.867,3976.144v10.008h-11.724v-10.008Zm.858-1.144h-13.439a.286.286,0,0,0-.287.286v11.724a.286.286,0,0,0,.287.286h13.439a.286.286,0,0,0,.286-.286v-11.724a.286.286,0,0,0-.286-.286Z" transform="translate(0)" fill="#fff"/>
    <g id="组_3906" data-name="组 3906" transform="translate(6137.131 3977.792)">
      <g id="组_3905" data-name="组 3905" transform="translate(0 0)">
        <path id="路径_7822" data-name="路径 7822" d="M6188.626,4004.3v6.78h-1.21v-5.6l-1.586.3v-1.059l2.063-.423Z" transform="translate(-6185.83 -4004.3)" fill="#fff"/>
      </g>
    </g>
  </g>
</svg>
