<svg xmlns="http://www.w3.org/2000/svg" width="14.006" height="14.006" viewBox="0 0 14.006 14.006">
  <g id="组_3920" data-name="组 3920" transform="translate(-6701 -3975)">
    <g id="组_3916" data-name="组 3916" transform="translate(6701 3988.244)">
      <rect id="矩形_2009" data-name="矩形 2009" width="14" height="1" rx="0.5" transform="translate(0 -0.238)" fill="#fff"/>
    </g>
    <path id="路径_7828" data-name="路径 7828" d="M6713.863,3976.143v10h-11.719v-10Zm.857-1.143h-13.434a.286.286,0,0,0-.286.286V3987a.286.286,0,0,0,.286.286h13.434a.286.286,0,0,0,.286-.286v-11.719a.286.286,0,0,0-.286-.286Z" fill="#fff"/>
    <g id="组_3919" data-name="组 3919" transform="translate(6703.039 3977.7)">
      <g id="组_3917" data-name="组 3917" transform="translate(0 0)">
        <path id="路径_7829" data-name="路径 7829" d="M6726.992,4009.127v1.081H6722.4v-1.158l.072-.057c.676-.529,1.224-.985,1.63-1.355a9.052,9.052,0,0,0,.938-.965,2.337,2.337,0,0,0,.419-.7,1.951,1.951,0,0,0,.1-.617.951.951,0,0,0-.1-.469.8.8,0,0,0-.257-.285.986.986,0,0,0-.368-.147,2.372,2.372,0,0,0-.439-.043c-.2,0-.406.01-.627.031a4.3,4.3,0,0,0-.687.128l-.24.065v-1.11l.148-.034a5.935,5.935,0,0,1,.709-.114c.25-.025.515-.037.789-.037a3.486,3.486,0,0,1,.9.108,1.928,1.928,0,0,1,.72.358,1.591,1.591,0,0,1,.471.648,2.4,2.4,0,0,1,.157.91,2.73,2.73,0,0,1-.139.877,3.141,3.141,0,0,1-.46.845,6.7,6.7,0,0,1-.844.911c-.348.319-.785.69-1.3,1.1l-.037.029Z" transform="translate(-6722.4 -4003.34)" fill="#fff"/>
      </g>
      <g id="组_3918" data-name="组 3918" transform="translate(5.551 0.091)">
        <path id="路径_7830" data-name="路径 7830" d="M6784.927,4008.851a2.566,2.566,0,0,1-.2,1.05,1.9,1.9,0,0,1-.568.731,2.356,2.356,0,0,1-.877.413,4.507,4.507,0,0,1-1.1.126c-.263,0-.5-.01-.712-.029a5.687,5.687,0,0,1-.643-.1l-.153-.031v-1.129l.237.061a4.718,4.718,0,0,0,.624.12,5.765,5.765,0,0,0,.638.03,3.28,3.28,0,0,0,.684-.065,1.306,1.306,0,0,0,.488-.2.915.915,0,0,0,.3-.352,1.3,1.3,0,0,0,.109-.575,1.059,1.059,0,0,0-.346-.9,2.194,2.194,0,0,0-1.3-.287,4.84,4.84,0,0,0-.567.04c-.216.028-.426.059-.625.1l-.258.048.491-3.605h3.343v1.1h-2.387l-.2,1.339.108-.01c.12-.01.259-.014.411-.014a2.952,2.952,0,0,1,1.83.5A1.94,1.94,0,0,1,6784.927,4008.851Z" transform="translate(-6780.66 -4004.3)" fill="#fff"/>
      </g>
    </g>
  </g>
</svg>
