<svg xmlns="http://www.w3.org/2000/svg" width="14.006" height="14.006" viewBox="0 0 14.006 14.006">
  <g id="组_3911" data-name="组 3911" transform="translate(-6328 -3975)">
    <g id="组_3908" data-name="组 3908" transform="translate(6328 3988.244)">
      <rect id="矩形_2008" data-name="矩形 2008" width="14" height="1" rx="0.5" transform="translate(0 -0.238)" fill="#fff"/>
    </g>
    <path id="路径_7823" data-name="路径 7823" d="M6340.862,3976.143v10h-11.719v-10Zm.857-1.143h-13.434a.286.286,0,0,0-.286.286V3987a.286.286,0,0,0,.286.286h13.434a.286.286,0,0,0,.286-.286v-11.719a.286.286,0,0,0-.286-.286Z" fill="#fff"/>
    <g id="组_3910" data-name="组 3910" transform="translate(6332.25 3977.792)">
      <g id="组_3909" data-name="组 3909" transform="translate(0 0)">
        <path id="路径_7824" data-name="路径 7824" d="M6376.788,4008.42v-4.12H6375.5l-2.894,4.056v1.145h3.022v1.576h1.156V4009.5h.755v-1.081Zm-2.958,0,1.8-2.558v2.558Z" transform="translate(-6372.61 -4004.3)" fill="#fff"/>
      </g>
    </g>
  </g>
</svg>
