<svg id="组_3915" data-name="组 3915" xmlns="http://www.w3.org/2000/svg" width="14.006" height="14.006" viewBox="0 0 14.006 14.006">
  <g id="组_3912" data-name="组 3912" transform="translate(0 13.244)">
    <path id="路径_7825" data-name="路径 7825" d="M13.625,139.762H.381A.381.381,0,0,1,0,139.381H0A.381.381,0,0,1,.381,139H13.625a.381.381,0,0,1,.381.381h0A.381.381,0,0,1,13.625,139.762Z" transform="translate(0 -139)" fill="#fff"/>
  </g>
  <path id="路径_7826" data-name="路径 7826" d="M12.863,1.143v10H1.143v-10ZM13.72,0H.286A.285.285,0,0,0,0,.286V12.005a.285.285,0,0,0,.286.286H13.72a.285.285,0,0,0,.286-.286V.286A.285.285,0,0,0,13.72,0Z" fill="#fff"/>
  <g id="组_3914" data-name="组 3914" transform="translate(4.711 2.7)">
    <g id="组_3913" data-name="组 3913">
      <path id="路径_7827" data-name="路径 7827" d="M53.858,29.834a2.341,2.341,0,0,0-.494-.872,1.805,1.805,0,0,0-.746-.483,2.763,2.763,0,0,0-.886-.139,2.473,2.473,0,0,0-1.007.192,2.011,2.011,0,0,0-.722.524,2.135,2.135,0,0,0-.42.778,3.232,3.232,0,0,0-.132.936,2.794,2.794,0,0,0,.154.975,1.858,1.858,0,0,0,.443.7,1.789,1.789,0,0,0,.69.408,2.772,2.772,0,0,0,.866.129,2.154,2.154,0,0,0,.909-.183c.08-.037.154-.075.222-.114a2.376,2.376,0,0,1-.13.36,1.946,1.946,0,0,1-.454.63,2.073,2.073,0,0,1-.71.422,2.949,2.949,0,0,1-1,.154h-.188l-.014,1.072h.193a3.952,3.952,0,0,0,1.625-.307,2.98,2.98,0,0,0,1.132-.872,3.608,3.608,0,0,0,.643-1.332,6.636,6.636,0,0,0,.2-1.68A4.162,4.162,0,0,0,53.858,29.834Zm-.979,1.056a1.064,1.064,0,0,1-.29.792,1.329,1.329,0,0,1-.958.29,1,1,0,0,1-.742-.282,1.263,1.263,0,0,1-.284-.919,1.6,1.6,0,0,1,.288-1.035,1.017,1.017,0,0,1,.839-.332,1,1,0,0,1,.846.36A1.8,1.8,0,0,1,52.878,30.89Z" transform="translate(-49.45 -28.34)" fill="#fff"/>
    </g>
  </g>
</svg>
