<svg xmlns="http://www.w3.org/2000/svg" width="20" height="19.939" viewBox="0 0 20 19.939">
  <path id="路径_6728" data-name="路径 6728" d="M4770,2789.929a7.012,7.012,0,0,1-7.023,6.984h-11.84a1.1,1.1,0,1,1,0-2.194h11.837a4.792,4.792,0,1,0,0-9.584h-9.216l4.129,4.1a1.092,1.092,0,0,1,0,1.549,1.106,1.106,0,0,1-1.556,0l-6.01-5.97a1.1,1.1,0,0,1,0-1.549l6.014-5.976a1.108,1.108,0,0,1,1.559,0,1.091,1.091,0,0,1,0,1.549l-4.129,4.1h9.214A7.011,7.011,0,0,1,4770,2789.929Z" transform="translate(-4750 -2776.974)" fill="#fff"/>
</svg>
