<svg width="12.000000" height="12.000000" viewBox="0 0 12 12" fill="none" xmlns="http://www.w3.org/2000/svg" xmlns:xlink="http://www.w3.org/1999/xlink">
	<desc>
			Created with Pixso.
	</desc>
	<path id="路径 7341" d="M10.2393 1.75977C9.16016 0.671875 7.65625 0 5.99902 0C2.6875 0 0 2.68848 0 6C0 9.32031 2.6875 12 5.99902 12C9.3125 12 12 9.32031 12 6C12 4.34375 11.3281 2.83984 10.2393 1.75977ZM9.43945 9.43945C9.17578 9.71191 8.73535 9.71191 8.46289 9.44727L5.99902 6.98438L3.55176 9.43945C3.27148 9.7041 2.83203 9.7041 2.56738 9.42383C2.30371 9.16016 2.30371 8.72852 2.56738 8.45605L5.02344 6L2.56738 3.55273C2.29492 3.28027 2.30371 2.83984 2.57617 2.56836C2.84766 2.30371 3.2793 2.30371 3.55176 2.56836L5.99902 5.02344L8.45508 2.56836C8.72656 2.30371 9.16797 2.30371 9.43164 2.57617C9.69531 2.84766 9.69531 3.28027 9.43164 3.55273L6.9834 6L9.43164 8.45605C9.7041 8.72852 9.71094 9.16016 9.43945 9.43945Z" fill-rule="nonzero" fill="#FFFFFF"/>
	<defs/>
</svg>
