<svg xmlns="http://www.w3.org/2000/svg" width="20.449" height="20.43" viewBox="0 0 20.449 20.43">
  <path id="路径_6439" data-name="路径 6439" d="M4891.7,3799v11.924a13.445,13.445,0,0,1-5.148,1.275c-4.106,0-4.106-1.593-8.209-1.593a9.52,9.52,0,0,0-4.151,1.008v6.092a1.483,1.483,0,0,1-2.94,0v-17.848a1.388,1.388,0,0,1,1.47-1.291,1.416,1.416,0,0,1,1.459,1.139,9.359,9.359,0,0,1,4.162-1.024c4.1,0,4.1,1.593,8.209,1.593A13.445,13.445,0,0,0,4891.7,3799Z" transform="translate(-4871.25 -3798.57)" fill="#fff"/>
</svg>
