<svg id="组_1018" data-name="组 1018" xmlns="http://www.w3.org/2000/svg" xmlns:xlink="http://www.w3.org/1999/xlink" width="12.227" height="23.631" viewBox="0 0 12.227 23.631">
  <defs>
    <clipPath id="clip-path">
      <rect id="矩形_255" data-name="矩形 255" width="12.227" height="23.631" fill="#fff"/>
    </clipPath>
  </defs>
  <g id="组_131" data-name="组 131" clip-path="url(#clip-path)">
    <path id="路径_5517" data-name="路径 5517" d="M1.363,7.868V6.662L0,8.544V16.86c.077.077.152.148.225.217a11.449,11.449,0,0,0,1.642,1.274A19.5,19.5,0,0,0,5.5,20.19.918.918,0,0,0,6.6,19.877,6.942,6.942,0,0,0,7.5,18.1a5.457,5.457,0,0,1-1.075.429.9.9,0,0,1-.483.008A4.73,4.73,0,0,1,2.177,14.5,4.8,4.8,0,0,1,5,9.45a.809.809,0,0,0,.494-.73V3.712a.714.714,0,0,1,.275-.59L5.911,3a.714.714,0,0,0,.275-.59V0L2.3,5.361v2.3a.73.73,0,0,1-.128.423.446.446,0,0,1-.814-.211" fill="#fff"/>
    <path id="路径_5518" data-name="路径 5518" d="M73.837,25.437q-.219-.165-.444-.323a.709.709,0,0,1-.347-.647v-2.38a.715.715,0,0,1,.27-.586.715.715,0,0,0,.27-.586v-3.76l.967,1.336v6.632a.443.443,0,0,1-.716.315" transform="translate(-66.244 -15.558)" fill="#fff"/>
    <path id="路径_5519" data-name="路径 5519" d="M14.615,64.866A34.333,34.333,0,0,1,9.29,60.2,17.884,17.884,0,0,0,14.206,62.4a.833.833,0,0,0,.772-.143,3.749,3.749,0,0,0-.005-6.293.709.709,0,0,1-.362-.657V51.629a.265.265,0,0,1,.423-.194,14.509,14.509,0,0,1,3.309,3.181.267.267,0,0,0,.479-.139v-.364a.768.768,0,0,0-.181-.494q-.355-.429-.743-.833a.719.719,0,0,1-.221-.539V45.473l2.976,4.31V58.1a23.371,23.371,0,0,1-2.536,3.385,27.154,27.154,0,0,1-3.5,3.386v-.006" transform="translate(-8.425 -41.239)" fill="#fff"/>
  </g>
</svg>
