<svg width="56.401367" height="56.402344" viewBox="0 0 56.4014 56.4023" fill="none" xmlns="http://www.w3.org/2000/svg" xmlns:xlink="http://www.w3.org/1999/xlink">
	<desc>
			Created with Pixso.
	</desc>
	<path id="路径 16850" d="M28.2012 0C12.627 0 0 12.627 0 28.2002C0 35.917 3.10059 42.9033 8.11914 47.9951L10.2949 45.8193C5.82812 41.2842 3.06934 35.0576 3.06934 28.2002C3.06934 14.3418 14.3418 3.06934 28.2012 3.06934C42.0596 3.06934 53.332 14.3418 53.332 28.2002C53.332 35.0762 50.5625 41.3154 46.0732 45.8535L48.2559 48.0225C53.2939 42.9307 56.4014 35.9287 56.4014 28.2002C56.4014 12.627 43.7754 0 28.2012 0Z" fill-rule="nonzero" fill="#FFFFFF"/>
	<path id="路径 16851" d="M28.2012 9.20801C17.7109 9.20801 9.20898 17.71 9.20898 28.2002C9.20898 33.3721 11.2773 38.0576 14.6309 41.4834L16.8066 39.3076C14.0088 36.4385 12.2783 32.5166 12.2783 28.2002C12.2783 19.4209 19.4219 12.2773 28.2012 12.2773C36.9805 12.2773 44.124 19.4209 44.124 28.2002C44.124 32.5439 42.3711 36.4922 39.5391 39.3662L41.7227 41.5332C45.1064 38.1025 47.1934 33.3955 47.1934 28.2002C47.1934 17.71 38.6914 9.20801 28.2012 9.20801Z" fill-rule="nonzero" fill="#FFFFFF"/>
	<path id="路径 16852" d="M36.4492 28.2021C36.4492 32.0264 33.8438 35.2461 30.3105 36.1748L30.3105 56.4023L25.7061 56.4023L25.7061 36.0635C22.3682 35.0078 19.9512 31.8848 19.9512 28.2021C19.9512 23.6475 23.6455 19.9521 28.2002 19.9521C32.7539 19.9521 36.4492 23.6475 36.4492 28.2021Z" fill-rule="nonzero" fill="#FFFFFF"/>
	<defs/>
</svg>
