<svg id="组_1937" data-name="组 1937" xmlns="http://www.w3.org/2000/svg" width="19.267" height="19.239" viewBox="0 0 19.267 19.239">
  <path id="路径_6256" data-name="路径 6256" d="M3948.673,1585.037l-3.2-.908a.643.643,0,0,1-.337-.233l-5.075-6.9a.221.221,0,0,1,.1-.34l1.3-.478a.336.336,0,0,1,.064-.017.319.319,0,0,1,.295.115l6.219,7.613a.259.259,0,0,1,.036.052Z" transform="translate(-3939.129 -1575.942)" fill="#fff"/>
  <path id="路径_6257" data-name="路径 6257" d="M3942.193,1650.79l-.908,3.2a.624.624,0,0,1-.233.336l-6.9,5.076a.226.226,0,0,1-.1.04.219.219,0,0,1-.24-.142l-.479-1.3a.32.32,0,0,1,.1-.359l7.615-6.22a.374.374,0,0,1,.051-.034Z" transform="translate(-3933.315 -1640.668)" fill="#fff"/>
  <path id="路径_6258" data-name="路径 6258" d="M4018.758,1658.818l-1.3.477a.35.35,0,0,1-.064.017.322.322,0,0,1-.3-.115l-6.219-7.613a.365.365,0,0,1-.034-.052l-.592-1.094,3.2.908a.63.63,0,0,1,.336.233l5.075,6.9A.221.221,0,0,1,4018.758,1658.818Z" transform="translate(-4000.039 -1640.362)" fill="#fff"/>
  <path id="路径_6259" data-name="路径 6259" d="M4020.306,1578.13l-7.615,6.219a.352.352,0,0,1-.051.034l-1.094.591.908-3.2a.624.624,0,0,1,.233-.336l6.9-5.074a.212.212,0,0,1,.1-.041.22.22,0,0,1,.24.142l.479,1.3A.323.323,0,0,1,4020.306,1578.13Z" transform="translate(-4001.162 -1576.084)" fill="#fff"/>
  <path id="路径_6260" data-name="路径 6260" d="M4000.046,1633.858v0h0Z" transform="translate(-3991.188 -1625.983)" fill="#fff"/>
  <path id="路径_6261" data-name="路径 6261" d="M3948.673,1585.037l-.956-.27-.642-.183-.584-.167-1.017-.288a.643.643,0,0,1-.337-.233l-5.075-6.9a.221.221,0,0,1,.1-.34l1.3-.478a.336.336,0,0,1,.064-.017.319.319,0,0,1,.295.115l6.16,7.54v0h0l.057.069a.259.259,0,0,1,.036.052l.041.076Z" transform="translate(-3939.129 -1575.942)" fill="#fff"/>
  <path id="路径_6262" data-name="路径 6262" d="M4018.758,1658.818l-1.3.477a.35.35,0,0,1-.064.017.322.322,0,0,1-.3-.115l-6.162-7.542-.058-.071a.365.365,0,0,1-.034-.052l-.218-.4-.05-.093-.323-.6.457.13.624.177,1.1.311,1.021.29a.63.63,0,0,1,.336.233l5.075,6.9A.221.221,0,0,1,4018.758,1658.818Z" transform="translate(-4000.039 -1640.362)" fill="#fff"/>
  <path id="路径_6263" data-name="路径 6263" d="M3942.193,1650.79l-.156.552-.058.2-.309,1.091-.384,1.352a.624.624,0,0,1-.233.336l-6.9,5.076a.226.226,0,0,1-.1.04.219.219,0,0,1-.24-.142l-.479-1.3a.32.32,0,0,1,.1-.359l7.615-6.22a.374.374,0,0,1,.051-.034l.317-.172.052-.027.242-.131Z" transform="translate(-3933.315 -1640.668)" fill="#fff"/>
  <g id="组_1046" data-name="组 1046" transform="translate(0.031 5.118)">
    <path id="路径_6264" data-name="路径 6264" d="M3934.932,1620.245c0,.277.012.551.034.823l-.577.471a9.638,9.638,0,0,1,.273-8.45l1.638,2.226A9.5,9.5,0,0,0,3934.932,1620.245Z" transform="translate(-3933.545 -1613.09)" fill="#fff"/>
  </g>
  <path id="路径_6265" data-name="路径 6265" d="M3985.309,1575.449l-2.2,1.622h0a9.514,9.514,0,0,0-4.554-1.153c-.21,0-.419.007-.625.021l-.515-.632a9.643,9.643,0,0,1,7.9.142Z" transform="translate(-3971.557 -1574.527)" fill="#fff"/>
  <path id="路径_6266" data-name="路径 6266" d="M4020.306,1578.13l-7.615,6.219a.352.352,0,0,1-.051.034l-.3.16-.022.012-.074.039-.7.38.153-.537.2-.716.168-.594.384-1.352a.624.624,0,0,1,.233-.336l6.9-5.074a.212.212,0,0,1,.1-.041.22.22,0,0,1,.24.142l.479,1.3A.323.323,0,0,1,4020.306,1578.13Z" transform="translate(-4001.162 -1576.084)" fill="#fff"/>
  <path id="路径_6267" data-name="路径 6267" d="M4061.071,1624.015l-1.621-2.2a9.5,9.5,0,0,0,1.135-4.519,9.386,9.386,0,0,0-.06-1.066l.514-.419a9.632,9.632,0,0,1,.032,8.205Z" transform="translate(-4042.708 -1610.331)" fill="#fff"/>
  <path id="路径_6268" data-name="路径 6268" d="M3981.969,1701.156a9.613,9.613,0,0,1-2.786.855,9.5,9.5,0,0,1-5.723-.921l2.217-1.63a9.513,9.513,0,0,0,4.757,1.266,9.611,9.611,0,0,0,1.13-.066Z" transform="translate(-3968.131 -1682.878)" fill="#fff"/>
</svg>
