<svg xmlns="http://www.w3.org/2000/svg" width="20.006" height="20.006" viewBox="0 0 20.006 20.006">
  <g id="组_3921" data-name="组 3921" transform="translate(-6839 -3344)">
    <path id="路径_7831" data-name="路径 7831" d="M6859.006,3346.722v.612H6839v-.612a.681.681,0,0,1,.681-.68.409.409,0,0,0,.408-.408v-.953a.681.681,0,0,1,.68-.68h10.888a1.633,1.633,0,0,1,1.632,1.633.41.41,0,0,0,.409.408h4.627A.68.68,0,0,1,6859.006,3346.722Z" fill="#fff"/>
    <path id="路径_7832" data-name="路径 7832" d="M6857.917,3377.589v13.406h-17.829v-13.406h17.829m1.088-1.089H6839v14.9a.681.681,0,0,0,.681.68h18.645a.68.68,0,0,0,.68-.68v-14.9Z" transform="translate(0 -28.077)" fill="#fff"/>
  </g>
</svg>
